<svg width="77" height="56" fill="none" xmlns="http://www.w3.org/2000/svg"><path d="M0 40 36.149 0H42v40h-4.595l-.019-37.543h1.767L4.536 40H0Zm9.657-10.686 3.098-3.428h26.398v3.428H9.657Z" fill="#000"/><path d="M37 40V0h15.977c4.186 0 7.849.857 10.988 2.571 3.177 1.677 5.644 4.02 7.4 7.029C73.122 12.61 74 16.076 74 20c0 3.924-.878 7.39-2.635 10.4-1.756 3.01-4.223 5.371-7.4 7.086C60.825 39.162 57.163 40 52.977 40H37Zm4.148-3.657h11.605c3.476 0 6.484-.686 9.026-2.057 2.579-1.41 4.578-3.334 5.998-5.772 1.42-2.476 2.13-5.314 2.13-8.514 0-3.238-.71-6.076-2.13-8.514-1.42-2.438-3.42-4.343-5.998-5.715-2.542-1.41-5.55-2.114-9.026-2.114H41.148v32.686Z" fill="#000"/><path d="M3.991 55.078a5.904 5.904 0 0 1-1.95-.325c-.615-.226-1.092-.512-1.43-.858l.377-.741c.32.312.75.576 1.287.793a4.78 4.78 0 0 0 1.716.312c.572 0 1.036-.07 1.391-.208.364-.148.628-.343.793-.585.173-.243.26-.512.26-.806 0-.356-.104-.642-.312-.858a1.987 1.987 0 0 0-.793-.507 8.118 8.118 0 0 0-1.092-.338 60.74 60.74 0 0 1-1.196-.3 5.45 5.45 0 0 1-1.105-.441 2.38 2.38 0 0 1-.806-.715c-.2-.304-.299-.698-.299-1.183 0-.45.117-.863.351-1.235.243-.382.611-.685 1.105-.91.494-.234 1.127-.351 1.898-.351a5.38 5.38 0 0 1 1.521.22c.503.14.936.334 1.3.586l-.325.767a4.28 4.28 0 0 0-1.248-.572 4.666 4.666 0 0 0-1.261-.182c-.546 0-.997.073-1.352.22-.355.148-.62.347-.793.599-.165.242-.247.52-.247.832 0 .355.1.641.299.858.208.216.477.385.806.507.338.121.706.23 1.105.325s.793.2 1.183.312c.399.112.763.26 1.092.442.338.173.607.407.806.702.208.294.312.68.312 1.157 0 .442-.121.853-.364 1.235-.243.372-.615.676-1.118.91-.494.225-1.131.338-1.911.338ZM13.458 55.078a5.307 5.307 0 0 1-1.911-.338 4.717 4.717 0 0 1-1.521-.975 4.754 4.754 0 0 1-1.001-1.47 4.766 4.766 0 0 1-.351-1.845c0-.668.117-1.279.351-1.833a4.556 4.556 0 0 1 1.001-1.47c.433-.424.94-.749 1.521-.974a5.067 5.067 0 0 1 1.911-.351c.685 0 1.317.117 1.898.35.58.226 1.083.547 1.508.963.433.416.767.905 1.001 1.469.243.563.364 1.178.364 1.846 0 .667-.121 1.282-.364 1.846a4.3 4.3 0 0 1-1.001 1.469 4.569 4.569 0 0 1-1.508.975 5.203 5.203 0 0 1-1.898.338Zm0-.858c.546 0 1.049-.091 1.508-.273.468-.19.871-.455 1.209-.793.347-.347.615-.746.806-1.196.19-.46.286-.962.286-1.508s-.095-1.045-.286-1.495c-.19-.46-.46-.858-.806-1.196a3.373 3.373 0 0 0-1.209-.793 3.895 3.895 0 0 0-1.508-.286c-.546 0-1.053.095-1.521.286a3.502 3.502 0 0 0-1.222.793 3.825 3.825 0 0 0-.806 1.196c-.19.45-.286.949-.286 1.495 0 .537.095 1.035.286 1.495.2.46.468.862.806 1.209.347.338.754.602 1.222.793a4.16 4.16 0 0 0 1.521.273ZM20.385 55v-9.1h.962v8.268h5.096V55h-6.058ZM31.541 55.078c-1.16 0-2.075-.334-2.742-1.001-.668-.668-1.002-1.656-1.002-2.964V45.9h.962v5.174c0 1.074.243 1.867.729 2.379.485.511 1.17.767 2.053.767.893 0 1.582-.256 2.067-.767.486-.512.729-1.305.729-2.38V45.9h.935v5.213c0 1.308-.333 2.296-1 2.964-.66.667-1.57 1-2.73 1ZM39.762 55v-8.268h-3.198V45.9h7.358v.832h-3.198V55h-.962ZM45.459 55v-9.1h.961V55h-.962ZM53.36 55.078a5.307 5.307 0 0 1-1.912-.338 4.717 4.717 0 0 1-1.52-.975 4.752 4.752 0 0 1-1.002-1.47 4.766 4.766 0 0 1-.35-1.845c0-.668.116-1.279.35-1.833a4.555 4.555 0 0 1 1.001-1.47c.434-.424.94-.749 1.521-.974a5.066 5.066 0 0 1 1.911-.351c.685 0 1.318.117 1.898.35.581.226 1.084.547 1.508.963.434.416.767.905 1.001 1.469.243.563.364 1.178.364 1.846 0 .667-.121 1.282-.364 1.846a4.3 4.3 0 0 1-1 1.469 4.57 4.57 0 0 1-1.509.975 5.203 5.203 0 0 1-1.898.338Zm0-.858c.545 0 1.048-.091 1.507-.273.468-.19.871-.455 1.21-.793.346-.347.615-.746.805-1.196.191-.46.286-.962.286-1.508a3.8 3.8 0 0 0-.286-1.495c-.19-.46-.459-.858-.806-1.196a3.373 3.373 0 0 0-1.209-.793 3.895 3.895 0 0 0-1.508-.286c-.546 0-1.053.095-1.52.286a3.502 3.502 0 0 0-1.223.793 3.825 3.825 0 0 0-.806 1.196c-.19.45-.286.949-.286 1.495 0 .537.096 1.035.286 1.495.2.46.468.862.806 1.209.347.338.754.602 1.222.793a4.16 4.16 0 0 0 1.521.273ZM60.287 55v-9.1h.793l6.279 7.904h-.416V45.9h.949V55h-.793l-6.266-7.904h.416V55h-.962ZM73.37 55.078a5.904 5.904 0 0 1-1.95-.325c-.615-.226-1.091-.512-1.43-.858l.378-.741c.32.312.75.576 1.287.793a4.78 4.78 0 0 0 1.716.312c.572 0 1.035-.07 1.39-.208.365-.148.63-.343.794-.585.173-.243.26-.512.26-.806 0-.356-.104-.642-.312-.858a1.987 1.987 0 0 0-.793-.507 8.115 8.115 0 0 0-1.092-.338 60.9 60.9 0 0 1-1.196-.3 5.45 5.45 0 0 1-1.105-.441 2.38 2.38 0 0 1-.806-.715c-.2-.304-.3-.698-.3-1.183 0-.45.118-.863.352-1.235.242-.382.61-.685 1.105-.91.494-.234 1.126-.351 1.898-.351a5.38 5.38 0 0 1 1.52.22c.504.14.937.334 1.3.586l-.324.767a4.28 4.28 0 0 0-1.248-.572 4.665 4.665 0 0 0-1.261-.182c-.546 0-.997.073-1.352.22-.355.148-.62.347-.793.599-.165.242-.247.52-.247.832 0 .355.1.641.299.858.208.216.477.385.806.507.338.121.706.23 1.105.325.398.095.793.2 1.183.312.398.112.763.26 1.092.442.338.173.606.407.806.702.208.294.312.68.312 1.157 0 .442-.121.853-.364 1.235-.243.372-.616.676-1.118.91-.494.225-1.131.338-1.911.338Z" fill="#737373"/></svg>