<?xml version="1.0" encoding="utf-8"?><svg viewBox="0 0 126 126" xmlns="http://www.w3.org/2000/svg" xmlns:xlink="http://www.w3.org/1999/xlink"><style>:root>svg{display:none}:root>svg:target{display:block}</style><svg fill="none" viewBox="0 0 126 126" id="call" xmlns="http://www.w3.org/2000/svg"><circle cx="63" cy="63" r="62" stroke="#2B2B2B" stroke-width="2"/><path d="M99 63.88C99 41.92 81.96 27 63 27c-18.76 0-36 14.6-36 37.12A7.87 7.87 0 0 0 23 71v8c0 4.4 3.6 8 8 8h4V62.6c0-15.48 12.52-28 28-28s28 12.52 28 28V91H59v8h32c4.4 0 8-3.6 8-8v-4.88c2.36-1.24 4-3.68 4-6.56v-9.2c0-2.8-1.64-5.24-4-6.48Z" fill="#2B2B2B"/><path d="M51 71a4 4 0 1 0 0-8 4 4 0 0 0 0 8ZM75 71a4 4 0 1 0 0-8 4 4 0 0 0 0 8Z" fill="#2B2B2B"/><path d="M87 59.12C85.08 47.72 75.16 39 63.2 39c-12.12 0-25.16 10.04-24.12 25.8 9.88-4.04 17.32-12.84 19.44-23.56C63.76 51.76 74.52 59 87 59.12Z" fill="#2B2B2B"/></svg><svg fill="none" viewBox="0 0 40 40" id="fb" xmlns="http://www.w3.org/2000/svg"><path d="M20 0C8.954 0 0 9 0 20.104c0 10.077 7.386 18.4 17.01 19.854V25.43h-4.948v-5.285h4.948V16.63c0-5.822 2.822-8.377 7.636-8.377 2.306 0 3.524.17 4.102.249v4.611h-3.284c-2.044 0-2.758 1.949-2.758 4.144v2.889h5.99l-.812 5.285h-5.176V40C32.47 38.671 40 30.28 40 20.104 40 9 31.046 0 20 0Z" fill="#2B2B2B"/></svg><svg fill="none" viewBox="0 0 68 68" id="location" xmlns="http://www.w3.org/2000/svg"><ellipse cx="34" cy="33.871" rx="34" ry="33.871" fill="#2B2B2B"/><path d="M34 14c-7.74 0-14 6.26-14 14 0 10.5 14 26 14 26s14-15.5 14-26c0-7.74-6.26-14-14-14Zm0 19c-2.76 0-5-2.24-5-5s2.24-5 5-5 5 2.24 5 5-2.24 5-5 5Z" fill="#fff"/></svg><svg fill="none" viewBox="0 0 68 68" id="mail" xmlns="http://www.w3.org/2000/svg"><ellipse cx="34" cy="33.871" rx="34" ry="33.871" fill="#2B2B2B"/><path d="M49.286 18H18.809c-2.095 0-3.79 1.8-3.79 4L15 46c0 2.2 1.714 4 3.81 4h30.476c2.095 0 3.81-1.8 3.81-4V22c0-2.2-1.715-4-3.81-4Zm0 8L34.048 36 18.809 26v-4l15.239 10 15.238-10v4Z" fill="#fff"/></svg><svg fill="none" viewBox="0 0 126 126" id="mesure" xmlns="http://www.w3.org/2000/svg"><path d="M40 90.12 41 99l6.48-6.16 11.08-30.4c-2.72-.68-5.12-2.04-7.08-3.92L40 90.12ZM73.64 58.52c-1.96 1.88-4.4 3.24-7.08 3.92l11.08 30.4L84.12 99l1.04-8.88-11.52-31.6ZM74.56 47c0-5.2-3.36-9.6-8-11.28V27h-8v8.72c-4.64 1.68-8 6.08-8 11.28 0 6.64 5.36 12 12 12s12-5.36 12-12Zm-12 4c-2.2 0-4-1.8-4-4s1.8-4 4-4 4 1.8 4 4-1.8 4-4 4Z" fill="#2B2B2B"/><circle cx="63" cy="63" r="62" stroke="#2B2B2B" stroke-width="2"/></svg><svg fill="none" viewBox="0 0 68 68" id="phone" xmlns="http://www.w3.org/2000/svg"><ellipse cx="34" cy="33.871" rx="34" ry="33.871" fill="#2B2B2B"/><path d="m45.956 31.311-4.89-4.889a2.23 2.23 0 0 1-.555-2.266 25.246 25.246 0 0 0 1.267-7.934C41.778 15 42.778 14 44 14h7.778C53 14 54 15 54 16.222 54 37.09 37.089 54 16.222 54 15 54 14 53 14 51.778v-7.756c0-1.222 1-2.222 2.222-2.222 2.756 0 5.445-.444 7.934-1.267a2.21 2.21 0 0 1 2.266.534l4.89 4.889C37.6 42.733 42.755 37.6 45.955 31.31Z" fill="#fff"/></svg><svg fill="none" viewBox="0 0 100 100" id="repair" xmlns="http://www.w3.org/2000/svg"><path d="M103.887 90.475 68.78 55.155c3.472-8.926 1.543-19.406-5.787-26.78-7.715-7.762-19.289-9.315-28.548-5.046l16.59 16.69L39.46 51.663l-16.975-16.69c-4.63 9.315-2.7 20.959 5.015 28.721 7.33 7.375 17.746 9.315 26.62 5.822l35.106 35.32c1.543 1.552 3.858 1.552 5.401 0l8.873-8.927c1.929-1.553 1.929-4.27.386-5.434Z" fill="#2B2B2B"/><circle cx="63" cy="63" r="62" stroke="#2B2B2B" stroke-width="2"/></svg><svg fill="none" viewBox="0 0 100 100" id="support" xmlns="http://www.w3.org/2000/svg"><path d="M72.946 53.302c.127-.953.19-1.937.19-2.984a18.33 18.33 0 0 0-.222-2.985l6.445-5.015c.571-.445.73-1.302.38-1.937l-6.095-10.54c-.38-.698-1.174-.92-1.873-.698l-7.587 3.047c-1.587-1.206-3.27-2.222-5.143-2.984l-1.143-8.063a1.536 1.536 0 0 0-1.523-1.302h-12.19c-.763 0-1.366.54-1.493 1.302l-1.143 8.063c-1.873.762-3.587 1.81-5.143 2.985l-7.587-3.048c-.698-.254-1.492 0-1.873.698l-6.063 10.54c-.381.667-.254 1.492.38 1.937l6.445 5.015c-.159.953-.286 2-.286 2.985 0 .984.064 2.031.223 2.984L21.2 58.318c-.571.444-.73 1.301-.38 1.936l6.094 10.54c.381.698 1.175.92 1.873.698l7.588-3.047c1.587 1.206 3.27 2.222 5.142 2.984l1.143 8.063c.16.762.762 1.302 1.524 1.302h12.19a1.48 1.48 0 0 0 1.493-1.302l1.143-8.063a21.775 21.775 0 0 0 5.142-2.984l7.588 3.047c.698.254 1.492 0 1.873-.698l6.095-10.54c.38-.698.222-1.492-.381-1.936l-6.38-5.016ZM50.28 61.746c-6.285 0-11.428-5.143-11.428-11.428 0-6.286 5.143-11.43 11.428-11.43 6.286 0 11.429 5.144 11.429 11.43 0 6.285-5.143 11.428-11.429 11.428Z" fill="#2B2B2B"/><circle cx="50" cy="50" r="49" stroke="#2B2B2B" stroke-width="2"/></svg><svg fill="none" viewBox="0 0 68 68" id="telegram" xmlns="http://www.w3.org/2000/svg"><ellipse cx="34" cy="33.871" rx="34" ry="33.871" fill="#2B2B2B"/><path fill-rule="evenodd" clip-rule="evenodd" d="M49.028 14.42c.466-.204.996-.389 1.574-.416.578-.028 1.202.1 1.86.529.658.428 1.204 1.244 1.406 2.081.203.837.152 1.657-.02 2.506l.013-.052s-5.506 30.682-5.634 31.415l-.004.005c-.16.908-.519 1.578-1.094 2.233-.575.655-1.473 1.279-2.61 1.279-1.904 0-2.727-1.236-2.832-1.4l-5.75-5.906-4.696 4.41-.043.034s-.667.655-1.755.655c-.253 0-.527-.063-.8-.156a1.298 1.298 0 0 0-.075-.014c-.036-.006-.065-.011-.101-.025-.02-.008-.038-.018-.057-.029a.507.507 0 0 0-.045-.023l.047.013a.164.164 0 0 0-.024-.008 2.21 2.21 0 0 1-.374-.196 2.853 2.853 0 0 1-.704-.711c-.384-.543-.661-1.193-.945-2.19h.004c-.355-1.243-1.712-5.753-2.297-7.695l-.188-.626c-1.11-.493-5.769-2.562-7.329-3.252v.004c-.462-.203-1.014-.477-1.559-1.062-.545-.585-.996-1.607-.996-2.61 0-1.244.687-2.382 1.305-2.906a4.482 4.482 0 0 1 1.234-.742c.034-.014.06-.025.078-.034l3.93-1.836c4.183-1.954 9.744-4.552 14.842-6.931 3.477-1.623 6.74-3.143 9.2-4.289l.725-.337c2.041-.95 3.327-1.55 3.714-1.718ZM28.34 36.05 44.354 24s.63-.407 1.001 0c.372.406 0 1.095 0 1.095l-12.01 13.146-2.003 8.764L28.34 36.05Z" fill="#fff"/></svg><svg fill="none" viewBox="0 0 40 40" id="twitter" xmlns="http://www.w3.org/2000/svg"><path d="M40 8c-1.56.926-4.69 2.188-6.53 2.552-.054.014-.098.032-.15.046A8.968 8.968 0 0 0 27 8a9 9 0 0 0-9 9c0 .261-.022.743 0 1-6.706 0-11.81-3.512-15.47-8-.398 1-.572 2.58-.572 4.064 0 2.801 2.19 5.553 5.6 7.26a8.198 8.198 0 0 1-2.04.277c-1.162 0-2.392-.306-3.518-1.234v.102c0 3.916 4.156 6.582 7.852 7.324-.75.442-2.262.486-3 .486-.52 0-2.36-.238-2.852-.33 1.028 3.21 4.736 5.013 8.27 5.077-2.764 2.168-4.682 2.972-10.342 2.972H0C3.576 38.29 8.13 40 12.694 40 27.554 40 36 28.675 36 18c0-.173-.004-.533-.01-.895 0-.036.01-.07.01-.106 0-.054-.016-.106-.016-.16a36.778 36.778 0 0 0-.018-.657A16.435 16.435 0 0 0 40 12a16.143 16.143 0 0 1-4.64 1.272c1.668-1 4.038-3.384 4.64-5.272Z" fill="#2B2B2B"/></svg><svg fill="none" viewBox="0 0 68 68" id="whatsapp" xmlns="http://www.w3.org/2000/svg"><ellipse cx="34" cy="33.871" rx="34" ry="33.871" fill="#2B2B2B"/><path d="M48.156 19.856A19.856 19.856 0 0 0 34.023 14c-11.013 0-19.975 8.958-19.979 19.97a19.923 19.923 0 0 0 2.666 9.984L14 54l10.466-2.474a19.963 19.963 0 0 0 9.547 2.432h.008c11.01 0 19.973-8.96 19.979-19.97a19.843 19.843 0 0 0-5.844-14.132Zm-4.358 21.252c-.416 1.166-2.455 2.29-3.37 2.372-.917.084-1.775.414-5.991-1.248-5.074-2-8.278-7.202-8.526-7.534-.25-.334-2.039-2.706-2.039-5.162s1.29-3.664 1.749-4.162c.458-.5.998-.624 1.332-.624.332 0 .666 0 .956.012.356.014.75.032 1.124.862.444.988 1.414 3.456 1.538 3.706.124.25.208.542.042.874-.166.332-.25.54-.498.832-.25.292-.524.65-.748.874-.25.248-.51.52-.22 1.018.292.5 1.292 2.134 2.776 3.456 1.908 1.7 3.514 2.226 4.014 2.478.5.25.79.208 1.082-.126.292-.332 1.248-1.456 1.58-1.956.332-.5.666-.416 1.124-.25.458.166 2.912 1.374 3.41 1.624.5.25.832.374.956.582.125.206.125 1.206-.291 2.372Z" fill="#fff"/></svg></svg>