
<svg width="126" height="126" viewBox="0 0 126 126" fill="none" xmlns="http://www.w3.org/2000/svg">
<circle cx="63" cy="63" r="62" stroke="#2B2B2B" stroke-width="2"/>
<path d="M99 63.88C99 41.92 81.96 27 63 27C44.24 27 27 41.6 27 64.12C24.6 65.48 23 68.04 23 71V79C23 83.4 26.6 87 31 87H35V62.6C35 47.12 47.52 34.6 63 34.6C78.48 34.6 91 47.12 91 62.6V91H59V99H91C95.4 99 99 95.4 99 91V86.12C101.36 84.88 103 82.44 103 79.56V70.36C103 67.56 101.36 65.12 99 63.88Z" fill="#2B2B2B"/>
<path d="M51 71C53.2091 71 55 69.2091 55 67C55 64.7909 53.2091 63 51 63C48.7909 63 47 64.7909 47 67C47 69.2091 48.7909 71 51 71Z" fill="#2B2B2B"/>
<path d="M75 71C77.2091 71 79 69.2091 79 67C79 64.7909 77.2091 63 75 63C72.7909 63 71 64.7909 71 67C71 69.2091 72.7909 71 75 71Z" fill="#2B2B2B"/>
<path d="M87 59.12C85.08 47.72 75.16 39 63.2 39C51.08 39 38.04 49.04 39.08 64.8C48.96 60.76 56.4 51.96 58.52 41.24C63.76 51.76 74.52 59 87 59.12Z" fill="#2B2B2B"/>
</svg>


