<svg width="77" height="56" viewBox="0 0 77 56" fill="none" xmlns="http://www.w3.org/2000/svg">
<path d="M0 40L36.149 0H42V40H37.4053L37.3861 2.45715H39.1532L4.53577 40H0ZM9.65696 29.3143L12.7554 25.8857H39.1532V29.3143H9.65696Z" fill="black"/>
<path d="M37 40V0H52.9773C57.1631 0 60.8258 0.857142 63.9652 2.57143C67.1419 4.24762 69.6086 6.59048 71.3652 9.6C73.1217 12.6095 74 16.0762 74 20C74 23.9238 73.1217 27.3905 71.3652 30.4C69.6086 33.4095 67.1419 35.7714 63.9652 37.4857C60.8258 39.1619 57.1631 40 52.9773 40H37ZM41.1485 36.3429H52.753C56.2288 36.3429 59.2374 35.6571 61.7788 34.2857C64.3576 32.8762 66.3571 30.9524 67.7773 28.5143C69.1975 26.0381 69.9076 23.2 69.9076 20C69.9076 16.7619 69.1975 13.9238 67.7773 11.4857C66.3571 9.04762 64.3576 7.14286 61.7788 5.77143C59.2374 4.3619 56.2288 3.65714 52.753 3.65714H41.1485V36.3429Z" fill="black"/>
<path d="M3.99096 55.0778C3.31496 55.0778 2.66496 54.9694 2.04096 54.7528C1.42563 54.5274 0.948962 54.2414 0.610962 53.8948L0.987962 53.1538C1.30863 53.4658 1.73763 53.7301 2.27496 53.9468C2.82096 54.1548 3.39296 54.2588 3.99096 54.2588C4.56296 54.2588 5.02663 54.1894 5.38196 54.0508C5.74596 53.9034 6.0103 53.7084 6.17496 53.4658C6.3483 53.2231 6.43496 52.9544 6.43496 52.6598C6.43496 52.3044 6.33096 52.0184 6.12296 51.8018C5.92363 51.5851 5.6593 51.4161 5.32996 51.2948C5.00063 51.1648 4.63663 51.0521 4.23796 50.9568C3.8393 50.8614 3.44063 50.7618 3.04196 50.6578C2.6433 50.5451 2.27496 50.3978 1.93696 50.2158C1.60763 50.0338 1.33896 49.7954 1.13096 49.5008C0.931629 49.1974 0.831962 48.8031 0.831962 48.3178C0.831962 47.8671 0.948962 47.4554 1.18296 47.0828C1.42563 46.7014 1.79396 46.3981 2.28796 46.1728C2.78196 45.9388 3.41463 45.8218 4.18596 45.8218C4.6973 45.8218 5.2043 45.8954 5.70696 46.0428C6.20963 46.1814 6.64296 46.3764 7.00696 46.6278L6.68196 47.3948C6.29196 47.1348 5.87596 46.9441 5.43396 46.8228C5.00063 46.7014 4.5803 46.6408 4.17296 46.6408C3.62696 46.6408 3.1763 46.7144 2.82096 46.8618C2.46563 47.0091 2.2013 47.2084 2.02796 47.4598C1.8633 47.7024 1.78096 47.9798 1.78096 48.2918C1.78096 48.6471 1.88063 48.9331 2.07996 49.1498C2.28796 49.3664 2.55663 49.5354 2.88596 49.6568C3.22396 49.7781 3.5923 49.8864 3.99096 49.9818C4.38963 50.0771 4.78396 50.1811 5.17396 50.2938C5.57263 50.4064 5.93663 50.5538 6.26596 50.7358C6.60396 50.9091 6.87263 51.1431 7.07196 51.4378C7.27996 51.7324 7.38396 52.1181 7.38396 52.5948C7.38396 53.0368 7.26263 53.4484 7.01996 53.8298C6.7773 54.2024 6.40463 54.5058 5.90196 54.7398C5.40796 54.9651 4.77096 55.0778 3.99096 55.0778Z" fill="#737373"/>
<path d="M13.458 55.0778C12.7733 55.0778 12.1363 54.9651 11.547 54.7398C10.9663 54.5058 10.4593 54.1808 10.026 53.7648C9.60134 53.3401 9.26768 52.8504 9.02501 52.2958C8.79101 51.7324 8.67401 51.1171 8.67401 50.4498C8.67401 49.7824 8.79101 49.1714 9.02501 48.6168C9.26768 48.0534 9.60134 47.5638 10.026 47.1478C10.4593 46.7231 10.9663 46.3981 11.547 46.1728C12.1277 45.9388 12.7647 45.8218 13.458 45.8218C14.1427 45.8218 14.7753 45.9388 15.356 46.1728C15.9367 46.3981 16.4393 46.7188 16.864 47.1348C17.2973 47.5508 17.631 48.0404 17.865 48.6038C18.1077 49.1671 18.229 49.7824 18.229 50.4498C18.229 51.1171 18.1077 51.7324 17.865 52.2958C17.631 52.8591 17.2973 53.3488 16.864 53.7648C16.4393 54.1808 15.9367 54.5058 15.356 54.7398C14.7753 54.9651 14.1427 55.0778 13.458 55.0778ZM13.458 54.2198C14.004 54.2198 14.5067 54.1288 14.966 53.9468C15.434 53.7561 15.837 53.4918 16.175 53.1538C16.5217 52.8071 16.7903 52.4084 16.981 51.9578C17.1717 51.4984 17.267 50.9958 17.267 50.4498C17.267 49.9038 17.1717 49.4054 16.981 48.9548C16.7903 48.4954 16.5217 48.0968 16.175 47.7588C15.837 47.4121 15.434 47.1478 14.966 46.9658C14.5067 46.7751 14.004 46.6798 13.458 46.6798C12.912 46.6798 12.405 46.7751 11.937 46.9658C11.469 47.1478 11.0617 47.4121 10.715 47.7588C10.377 48.0968 10.1083 48.4954 9.90901 48.9548C9.71834 49.4054 9.62301 49.9038 9.62301 50.4498C9.62301 50.9871 9.71834 51.4854 9.90901 51.9448C10.1083 52.4041 10.377 52.8071 10.715 53.1538C11.0617 53.4918 11.469 53.7561 11.937 53.9468C12.405 54.1288 12.912 54.2198 13.458 54.2198Z" fill="#737373"/>
<path d="M20.3853 54.9998V45.8998H21.3473V54.1678H26.4433V54.9998H20.3853Z" fill="#737373"/>
<path d="M31.5415 55.0778C30.3802 55.0778 29.4659 54.7441 28.7985 54.0768C28.1312 53.4094 27.7975 52.4214 27.7975 51.1128V45.8998H28.7595V51.0738C28.7595 52.1484 29.0022 52.9414 29.4875 53.4528C29.9728 53.9641 30.6575 54.2198 31.5415 54.2198C32.4342 54.2198 33.1232 53.9641 33.6085 53.4528C34.0938 52.9414 34.3365 52.1484 34.3365 51.0738V45.8998H35.2725V51.1128C35.2725 52.4214 34.9388 53.4094 34.2715 54.0768C33.6129 54.7441 32.7029 55.0778 31.5415 55.0778Z" fill="#737373"/>
<path d="M39.7617 54.9998V46.7318H36.5637V45.8998H43.9217V46.7318H40.7237V54.9998H39.7617Z" fill="#737373"/>
<path d="M45.4585 54.9998V45.8998H46.4205V54.9998H45.4585Z" fill="#737373"/>
<path d="M53.3594 55.0778C52.6747 55.0778 52.0377 54.9651 51.4484 54.7398C50.8677 54.5058 50.3607 54.1808 49.9274 53.7648C49.5027 53.3401 49.169 52.8504 48.9264 52.2958C48.6924 51.7324 48.5754 51.1171 48.5754 50.4498C48.5754 49.7824 48.6924 49.1714 48.9264 48.6168C49.169 48.0534 49.5027 47.5638 49.9274 47.1478C50.3607 46.7231 50.8677 46.3981 51.4484 46.1728C52.029 45.9388 52.666 45.8218 53.3594 45.8218C54.044 45.8218 54.6767 45.9388 55.2574 46.1728C55.838 46.3981 56.3407 46.7188 56.7654 47.1348C57.1987 47.5508 57.5324 48.0404 57.7664 48.6038C58.009 49.1671 58.1304 49.7824 58.1304 50.4498C58.1304 51.1171 58.009 51.7324 57.7664 52.2958C57.5324 52.8591 57.1987 53.3488 56.7654 53.7648C56.3407 54.1808 55.838 54.5058 55.2574 54.7398C54.6767 54.9651 54.044 55.0778 53.3594 55.0778ZM53.3594 54.2198C53.9054 54.2198 54.408 54.1288 54.8674 53.9468C55.3354 53.7561 55.7384 53.4918 56.0764 53.1538C56.423 52.8071 56.6917 52.4084 56.8824 51.9578C57.073 51.4984 57.1684 50.9958 57.1684 50.4498C57.1684 49.9038 57.073 49.4054 56.8824 48.9548C56.6917 48.4954 56.423 48.0968 56.0764 47.7588C55.7384 47.4121 55.3354 47.1478 54.8674 46.9658C54.408 46.7751 53.9054 46.6798 53.3594 46.6798C52.8134 46.6798 52.3064 46.7751 51.8384 46.9658C51.3704 47.1478 50.963 47.4121 50.6164 47.7588C50.2784 48.0968 50.0097 48.4954 49.8104 48.9548C49.6197 49.4054 49.5244 49.9038 49.5244 50.4498C49.5244 50.9871 49.6197 51.4854 49.8104 51.9448C50.0097 52.4041 50.2784 52.8071 50.6164 53.1538C50.963 53.4918 51.3704 53.7561 51.8384 53.9468C52.3064 54.1288 52.8134 54.2198 53.3594 54.2198Z" fill="#737373"/>
<path d="M60.2866 54.9998V45.8998H61.0797L67.3587 53.8038H66.9426V45.8998H67.8916V54.9998H67.0986L60.8326 47.0958H61.2486V54.9998H60.2866Z" fill="#737373"/>
<path d="M73.3708 55.0778C72.6948 55.0778 72.0448 54.9694 71.4208 54.7528C70.8055 54.5274 70.3288 54.2414 69.9908 53.8948L70.3678 53.1538C70.6885 53.4658 71.1175 53.7301 71.6548 53.9468C72.2008 54.1548 72.7728 54.2588 73.3708 54.2588C73.9428 54.2588 74.4065 54.1894 74.7618 54.0508C75.1258 53.9034 75.3902 53.7084 75.5548 53.4658C75.7282 53.2231 75.8148 52.9544 75.8148 52.6598C75.8148 52.3044 75.7108 52.0184 75.5028 51.8018C75.3035 51.5851 75.0392 51.4161 74.7098 51.2948C74.3805 51.1648 74.0165 51.0521 73.6178 50.9568C73.2192 50.8614 72.8205 50.7618 72.4218 50.6578C72.0232 50.5451 71.6548 50.3978 71.3168 50.2158C70.9875 50.0338 70.7188 49.7954 70.5108 49.5008C70.3115 49.1974 70.2118 48.8031 70.2118 48.3178C70.2118 47.8671 70.3288 47.4554 70.5628 47.0828C70.8055 46.7014 71.1738 46.3981 71.6678 46.1728C72.1618 45.9388 72.7945 45.8218 73.5658 45.8218C74.0772 45.8218 74.5842 45.8954 75.0868 46.0428C75.5895 46.1814 76.0229 46.3764 76.3868 46.6278L76.0618 47.3948C75.6718 47.1348 75.2558 46.9441 74.8138 46.8228C74.3805 46.7014 73.9602 46.6408 73.5528 46.6408C73.0068 46.6408 72.5562 46.7144 72.2008 46.8618C71.8455 47.0091 71.5812 47.2084 71.4078 47.4598C71.2432 47.7024 71.1608 47.9798 71.1608 48.2918C71.1608 48.6471 71.2605 48.9331 71.4598 49.1498C71.6678 49.3664 71.9365 49.5354 72.2658 49.6568C72.6038 49.7781 72.9722 49.8864 73.3708 49.9818C73.7695 50.0771 74.1638 50.1811 74.5538 50.2938C74.9525 50.4064 75.3165 50.5538 75.6458 50.7358C75.9838 50.9091 76.2525 51.1431 76.4518 51.4378C76.6598 51.7324 76.7638 52.1181 76.7638 52.5948C76.7638 53.0368 76.6425 53.4484 76.3998 53.8298C76.1572 54.2024 75.7845 54.5058 75.2818 54.7398C74.7878 54.9651 74.1508 55.0778 73.3708 55.0778Z" fill="#737373"/>
</svg>
