<svg width="126" height="126" viewBox="0 0 126 126" fill="none" xmlns="http://www.w3.org/2000/svg">
<path d="M40 90.12L41 99L47.48 92.84L58.56 62.44C55.84 61.76 53.44 60.4 51.48 58.52L40 90.12Z" fill="#2B2B2B"/>
<path d="M73.64 58.52C71.68 60.4 69.24 61.76 66.56 62.44L77.64 92.84L84.12 99L85.16 90.12L73.64 58.52Z" fill="#2B2B2B"/>
<path d="M74.56 47C74.56 41.8 71.2 37.4 66.56 35.72V27H58.56V35.72C53.92 37.4 50.56 41.8 50.56 47C50.56 53.64 55.92 59 62.56 59C69.2 59 74.56 53.64 74.56 47ZM62.56 51C60.36 51 58.56 49.2 58.56 47C58.56 44.8 60.36 43 62.56 43C64.76 43 66.56 44.8 66.56 47C66.56 49.2 64.76 51 62.56 51Z" fill="#2B2B2B"/>
<circle cx="63" cy="63" r="62" stroke="#2B2B2B" stroke-width="2"/>
</svg>

