<svg width="68" height="68" viewBox="0 0 68 68" fill="none" xmlns="http://www.w3.org/2000/svg">
<ellipse cx="34" cy="33.871" rx="34" ry="33.871" fill="#2B2B2B"/>
<path d="M45.9556 31.3111L41.0667 26.4222C40.4444 25.8 40.2667 24.9333 40.5111 24.1556C41.3333 21.6667 41.7778 19 41.7778 16.2222C41.7778 15 42.7778 14 44 14H51.7778C53 14 54 15 54 16.2222C54 37.0889 37.0889 54 16.2222 54C15 54 14 53 14 51.7778V44.0222C14 42.8 15 41.8 16.2222 41.8C18.9778 41.8 21.6667 41.3556 24.1556 40.5333C24.9333 40.2667 25.8222 40.4667 26.4222 41.0667L31.3111 45.9556C37.6 42.7333 42.7556 37.6 45.9556 31.3111Z" fill="white"/>
</svg>
