<svg width="126" height="126" viewBox="0 0 126 126" fill="none" xmlns="http://www.w3.org/2000/svg">
<path d="M91.912 67.16C92.072 65.96 92.152 64.72 92.152 63.4C92.152 62.12 92.072 60.84 91.872 59.64L99.992 53.32C100.712 52.76 100.912 51.68 100.472 50.88L92.792 37.6C92.312 36.72 91.312 36.44 90.432 36.72L80.872 40.56C78.872 39.04 76.752 37.76 74.392 36.8L72.952 26.64C72.792 25.68 71.992 25 71.032 25H55.672C54.712 25 53.952 25.68 53.792 26.64L52.352 36.8C49.992 37.76 47.832 39.08 45.872 40.56L36.312 36.72C35.432 36.4 34.432 36.72 33.952 37.6L26.312 50.88C25.832 51.72 25.992 52.76 26.792 53.32L34.912 59.64C34.712 60.84 34.552 62.16 34.552 63.4C34.552 64.64 34.632 65.96 34.832 67.16L26.712 73.48C25.992 74.04 25.792 75.12 26.232 75.92L33.912 89.2C34.392 90.08 35.392 90.36 36.272 90.08L45.832 86.24C47.832 87.76 49.952 89.04 52.312 90L53.752 100.16C53.952 101.12 54.712 101.8 55.672 101.8H71.032C71.992 101.8 72.792 101.12 72.912 100.16L74.352 90C76.712 89.04 78.872 87.76 80.832 86.24L90.392 90.08C91.272 90.4 92.272 90.08 92.752 89.2L100.432 75.92C100.912 75.04 100.712 74.04 99.952 73.48L91.912 67.16ZM63.352 77.8C55.432 77.8 48.952 71.32 48.952 63.4C48.952 55.48 55.432 49 63.352 49C71.272 49 77.752 55.48 77.752 63.4C77.752 71.32 71.272 77.8 63.352 77.8Z" fill="#2B2B2B"/>
<circle cx="63" cy="63" r="62" stroke="#2B2B2B" stroke-width="2"/>
</svg>

