<svg width="100" height="100" viewBox="0 0 100 100" fill="none" xmlns="http://www.w3.org/2000/svg">
<path d="M72.9461 53.3016C73.0731 52.3492 73.1365 51.3651 73.1365 50.3175C73.1365 49.3016 73.0731 48.2858 72.9143 47.3334L79.3588 42.3175C79.9302 41.8731 80.0889 41.0159 79.7397 40.381L73.6445 29.8413C73.2635 29.1429 72.4699 28.9207 71.7715 29.1429L64.1842 32.1905C62.5969 30.9842 60.9143 29.9683 59.0413 29.2064L57.8984 21.1429C57.7715 20.381 57.1365 19.8413 56.3746 19.8413H44.1842C43.4223 19.8413 42.8191 20.381 42.6921 21.1429L41.5492 29.2064C39.6762 29.9683 37.9619 31.0159 36.4064 32.1905L28.8191 29.1429C28.1207 28.8889 27.327 29.1429 26.9461 29.8413L20.8826 40.381C20.5016 41.0477 20.6286 41.8731 21.2635 42.3175L27.708 47.3334C27.5492 48.2858 27.4223 49.3334 27.4223 50.3175C27.4223 51.3016 27.4857 52.3492 27.6445 53.3016L21.2 58.3175C20.6286 58.7619 20.4699 59.6191 20.8191 60.254L26.9143 70.7937C27.2953 71.4921 28.0889 71.7143 28.7873 71.4921L36.3746 68.4445C37.9619 69.6508 39.6445 70.6667 41.5175 71.4286L42.6603 79.4921C42.8191 80.254 43.4223 80.7937 44.1842 80.7937H56.3746C57.1365 80.7937 57.7715 80.254 57.8667 79.4921L59.0096 71.4286C60.8826 70.6667 62.5969 69.6508 64.1524 68.4445L71.7397 71.4921C72.4381 71.7461 73.2318 71.4921 73.6127 70.7937L79.708 60.254C80.0889 59.5556 79.9302 58.7619 79.327 58.3175L72.9461 53.3016ZM50.2794 61.7461C43.9937 61.7461 38.8508 56.6032 38.8508 50.3175C38.8508 44.0318 43.9937 38.8889 50.2794 38.8889C56.5651 38.8889 61.708 44.0318 61.708 50.3175C61.708 56.6032 56.5651 61.7461 50.2794 61.7461Z" fill="#2B2B2B"/>
<circle cx="50" cy="50" r="49" stroke="#2B2B2B" stroke-width="2"/>
</svg>

