<svg width="68" height="68" viewBox="0 0 68 68" fill="none" xmlns="http://www.w3.org/2000/svg">
<ellipse cx="34" cy="33.871" rx="34" ry="33.871" fill="#2B2B2B"/>
<path fill-rule="evenodd" clip-rule="evenodd" d="M49.0279 14.4199C49.4939 14.2161 50.0243 14.0315 50.6023 14.0036C51.1804 13.9757 51.8042 14.1042 52.462 14.5326C53.1197 14.9611 53.666 15.7774 53.8684 16.614C54.0708 17.4505 54.0202 18.2714 53.8489 19.1203L53.8606 19.0682C53.8606 19.0682 48.3554 49.7504 48.227 50.4834L48.2231 50.4877C48.0622 51.396 47.7041 52.066 47.1292 52.7208C46.5544 53.3757 45.6559 54 44.5195 54C42.6151 54 41.7922 52.764 41.6871 52.5994L35.9364 46.6936L31.2405 51.1035L31.1975 51.1382C31.1975 51.1382 30.5307 51.7929 29.4434 51.7929C29.1901 51.7929 28.9165 51.7304 28.6425 51.6368C28.6131 51.6302 28.5892 51.6261 28.5676 51.6225C28.5319 51.6165 28.5027 51.6116 28.4667 51.5978C28.447 51.5903 28.4286 51.5798 28.4101 51.5694C28.3954 51.561 28.3806 51.5527 28.3651 51.5458L28.412 51.5588C28.4039 51.5551 28.3957 51.5528 28.3875 51.5505C28.3787 51.548 28.3699 51.5455 28.3612 51.5414C28.2411 51.4872 28.1215 51.4294 28.0135 51.355C27.732 51.1609 27.5025 50.9151 27.3103 50.6438C26.9258 50.1013 26.6489 49.4514 26.3649 48.4541H26.3688C26.0141 47.2106 24.6568 42.7009 24.0723 40.7586C23.9945 40.5 23.9303 40.2869 23.8841 40.1331C22.7747 39.6403 18.1153 37.5709 16.555 36.881V36.8853C16.0934 36.6816 15.5412 36.4081 14.9962 35.823C14.4513 35.2379 14 34.216 14 33.2126C14 31.9688 14.6867 30.8315 15.3049 30.3074C15.838 29.8554 16.3276 29.6524 16.5394 29.5646C16.5725 29.5508 16.5989 29.5399 16.6175 29.5313C17.6859 29.0323 19.0256 28.4064 20.5478 27.6953C24.7304 25.7413 30.2912 23.1435 35.3895 20.7636C38.8663 19.1406 42.1282 17.6212 44.5899 16.4752C44.8408 16.3584 45.0823 16.246 45.314 16.1381C47.3552 15.1877 48.6413 14.5889 49.0279 14.4199ZM28.3396 36.0502L44.3542 23.9998C44.3542 23.9998 44.9836 23.5933 45.3551 23.9998C45.7265 24.4062 45.3551 25.0953 45.3551 25.0953L33.3442 38.2412L31.3423 47.0051L28.3396 36.0502Z" fill="white"/>
</svg>
