<svg width="40" height="40" viewBox="0 0 40 40" fill="none" xmlns="http://www.w3.org/2000/svg">
<path d="M40 8C38.44 8.92594 35.31 10.1879 33.47 10.5518C33.416 10.5658 33.372 10.5838 33.32 10.5978C31.694 8.99394 29.466 8 27 8C22.03 8 18 12.0297 18 16.9994C18 17.2614 17.978 17.7434 18 17.9994C11.294 17.9994 6.19 14.4876 2.53 9.99988C2.132 10.9998 1.958 12.5797 1.958 14.0636C1.958 16.8654 4.148 19.6173 7.558 21.3232C6.93 21.4852 6.238 21.6012 5.518 21.6012C4.356 21.6012 3.126 21.2952 2 20.3672C2 20.4012 2 20.4332 2 20.4692C2 24.385 6.156 27.0508 9.852 27.7928C9.102 28.2347 7.59 28.2787 6.852 28.2787C6.332 28.2787 4.492 28.0407 4 27.9488C5.028 31.1586 8.736 32.9624 12.27 33.0264C9.506 35.1943 7.588 35.9983 1.928 35.9983H0C3.576 38.2901 8.13 40 12.694 40C27.554 40 36 28.6747 36 17.9994C36 17.8274 35.996 17.4674 35.99 17.1054C35.99 17.0694 36 17.0354 36 16.9994C36 16.9454 35.984 16.8934 35.984 16.8394C35.978 16.5675 35.972 16.3135 35.966 16.1815C37.546 15.0416 38.916 13.6196 40 11.9998C38.55 12.6437 36.994 13.0757 35.36 13.2717C37.028 12.2717 39.398 9.88788 40 8Z" fill="#2B2B2B"/>
</svg>
