<svg width="68" height="68" viewBox="0 0 68 68" fill="none" xmlns="http://www.w3.org/2000/svg">
<ellipse cx="34" cy="33.871" rx="34" ry="33.871" fill="#2B2B2B"/>
<path d="M48.1557 19.856C44.3835 16.082 39.3673 14.002 34.023 14C23.0104 14 14.048 22.958 14.044 33.97C14.042 37.49 14.962 40.926 16.7101 43.954L14 54L24.4665 51.526C27.3847 53.118 30.6688 53.956 34.013 53.958H34.021C45.0315 53.958 53.994 44.998 54 33.988C54.004 28.65 51.9279 23.632 48.1557 19.856ZM43.7975 41.108C43.3815 42.274 41.3434 43.398 40.4273 43.48C39.5113 43.564 38.6532 43.894 34.437 42.232C29.3628 40.232 26.1586 35.03 25.9106 34.698C25.6606 34.364 23.8725 31.992 23.8725 29.536C23.8725 27.08 25.1626 25.872 25.6206 25.374C26.0786 24.874 26.6186 24.75 26.9526 24.75C27.2847 24.75 27.6187 24.75 27.9087 24.762C28.2647 24.776 28.6587 24.794 29.0327 25.624C29.4768 26.612 30.4468 29.08 30.5708 29.33C30.6948 29.58 30.7788 29.872 30.6128 30.204C30.4468 30.536 30.3628 30.744 30.1148 31.036C29.8648 31.328 29.5908 31.686 29.3668 31.91C29.1168 32.158 28.8567 32.43 29.1468 32.928C29.4388 33.428 30.4388 35.062 31.9229 36.384C33.831 38.084 35.4371 38.61 35.9371 38.862C36.4371 39.112 36.7271 39.07 37.0191 38.736C37.3112 38.404 38.2672 37.28 38.5992 36.78C38.9312 36.28 39.2653 36.364 39.7233 36.53C40.1813 36.696 42.6354 37.904 43.1335 38.154C43.6335 38.404 43.9655 38.528 44.0895 38.736C44.2135 38.942 44.2135 39.942 43.7975 41.108Z" fill="white"/>
</svg>

